# xmcd CD database file generated by OrangeCD 5.2
#
# Track frame offsets:
#	150
#	11055
#	26450
#	48737
#	61737
#	74037
#	94202
#	107915
#	123850
#	140185
#	155677
#	168987
#	193772
#	208867
#	221862
#
# Disc length: 3101 seconds
#
# Revision: 3
# Processed by: cddbd v1.5.1PL0 Copyright (c) Steve Scherf et al.
# Submitted via: OrangeCD 5.2
#
DISCID=ec0c1b0f
DTITLE=Good Time Charlie - Coming Down With The Blues
DYEAR=1995
DGENRE=Blues
TTITLE0=Boogie Man
TTITLE1=Why Don't You Stop, Babe
TTITLE2=Broke And Lonely
TTITLE3=I Ain't Gonna Be Your Monkey Man
TTITLE4=I'm A Fool To Care
TTITLE5=Out My Door
TTITLE6=Lil' Girl
TTITLE7=I'm Movin' Out
TTITLE8=Coming Down With The Blues
TTITLE9=Veguzdal
TTITLE10=No Buts And No Maybes
TTITLE11=Homesick
TTITLE12=I'm Hooked
TTITLE13=You Don't Love Me
TTITLE14=She's Talking 'Bout Loving
EXTD=
EXTT0=
EXTT1=
EXTT2=
EXTT3=
EXTT4=
EXTT5=
EXTT6=
EXTT7=
EXTT8=
EXTT9=
EXTT10=
EXTT11=
EXTT12=
EXTT13=
EXTT14=
PLAYORDER=
